<svg xmlns="http://www.w3.org/2000/svg" viewBox="0 0 488 194" role="img" aria-labelledby="logo-title logo-desc">
  <title id="logo-title">Auto-Ecole Saint-Genes Bordeaux</title>
  <desc id="logo-desc">Logo vectoriel de l'Auto-Ecole Saint-Genes a Bordeaux.</desc>
  <defs>
    <path id="auto-arc" d="M133 75 C170 8 318 8 355 75"/>
    <style>
      .ink{fill:#231f20}
      .muted{fill:#595a5c}
      .blue{fill:#1687c9}
      .headline{font-family:Georgia,'Times New Roman',serif;font-weight:700}
      .slab{font-family:Georgia,'Times New Roman',serif;font-weight:900}
      .city{font-family:Georgia,'Times New Roman',serif;font-weight:800}
    </style>
  </defs>

  <g aria-hidden="true">
    <text class="headline ink" font-size="40" letter-spacing="1.5">
      <textPath href="#auto-arc" startOffset="50%" text-anchor="middle">Auto-Ecole</textPath>
    </text>

    <g transform="translate(206 55)">
      <path class="muted" d="M16 30h62c10 0 18-7 18-16 0-8-6-14-15-15H64c-9-8-22-10-35-7C15-5 7 3 7 15c0 6 3 11 9 15Z"/>
      <path class="ink" d="M22 16c7-11 18-17 31-15l10 4 13 1c5 0 9 4 9 8l-18 2-18-8c-7-3-16 0-21 8h-6Z"/>
      <circle cx="26" cy="28" r="10" class="ink"/>
      <circle cx="77" cy="28" r="10" class="ink"/>
      <circle cx="26" cy="28" r="5" fill="#fff"/>
      <circle cx="77" cy="28" r="5" fill="#fff"/>
      <path class="ink" d="M39 27h25l8-15-17-2-11 8-15-3-6 5 16 7Z"/>
      <path fill="#fff" opacity=".35" d="M20 7c8-6 20-8 30-6-8 2-16 6-22 13l-14 2c0-3 2-6 6-9Z"/>
    </g>

    <path class="blue" d="M86 116h28v40H86l12-20-12-20Z"/>
    <path class="blue" d="M114 98h287v58H114z"/>
    <path fill="#0f74b1" d="M114 156h287v6H114z" opacity=".45"/>

    <text x="257.5" y="142" text-anchor="middle" fill="#fff" class="slab" font-size="44" letter-spacing="-1">Saint-Genès</text>

    <text x="244" y="190" text-anchor="middle" class="city ink" font-size="31" letter-spacing=".5">Bordeaux</text>
    <path class="muted" d="m164 167 4.2 8.4 9.3 1.4-6.7 6.5 1.6 9.2-8.4-4.4-8.3 4.4 1.6-9.2-6.7-6.5 9.2-1.4 4.2-8.4Z"/>
    <path class="muted" d="m348 167 4.2 8.4 9.3 1.4-6.7 6.5 1.6 9.2-8.4-4.4-8.3 4.4 1.6-9.2-6.7-6.5 9.2-1.4 4.2-8.4Z"/>
  </g>
</svg>
